<?xml version="1.0" standalone="no"?><!DOCTYPE svg PUBLIC "-//W3C//DTD SVG 1.1//EN" "http://www.w3.org/Graphics/SVG/1.1/DTD/svg11.dtd"><svg t="1754651162918" class="icon" viewBox="0 0 1024 1024" version="1.1" xmlns="http://www.w3.org/2000/svg" p-id="4534" xmlns:xlink="http://www.w3.org/1999/xlink" width="48" height="48"><path d="M499.2 390.4H211.2c-25.6 0-51.2-25.6-51.2-51.2v-6.4c0-25.6 25.6-51.2 51.2-51.2h288c25.6 0 51.2 25.6 51.2 51.2v6.4c0 25.6-19.2 51.2-51.2 51.2zM326.4 608H217.6c-25.6 0-51.2-25.6-51.2-51.2v-6.4c0-25.6 25.6-51.2 51.2-51.2h108.8c25.6 0 51.2 25.6 51.2 51.2v6.4c0 25.6-25.6 51.2-51.2 51.2z" fill="#339fd8" p-id="4535"></path><path d="M332.8 774.4H166.4c-32 0-57.6-25.6-57.6-57.6V166.4c0-32 25.6-57.6 57.6-57.6h550.4c32 0 57.6 25.6 57.6 57.6v172.8c38.4 6.4 76.8 19.2 108.8 32v-256c0-57.6-51.2-108.8-108.8-108.8H108.8C51.2 6.4 0 51.2 0 115.2v659.2c0 57.6 51.2 108.8 108.8 108.8h256c-12.8-32-25.6-70.4-32-108.8z" fill="#339fd8" p-id="4536"></path><path d="M723.2 422.4c-166.4 0-300.8 134.4-300.8 300.8S556.8 1024 723.2 1024s300.8-134.4 300.8-300.8-134.4-300.8-300.8-300.8z m140.8 371.2c19.2 19.2 19.2 51.2 0 70.4-19.2 19.2-51.2 19.2-70.4 0l-70.4-70.4-70.4 70.4c-19.2 19.2-51.2 19.2-70.4 0-19.2-19.2-19.2-51.2 0-70.4l70.4-70.4-70.4-70.4c-19.2-19.2-19.2-51.2 0-70.4 19.2-19.2 51.2-19.2 70.4 0l70.4 70.4L793.6 576c19.2-19.2 51.2-19.2 70.4 0 19.2 19.2 19.2 51.2 0 70.4l-70.4 70.4 70.4 76.8z" fill="#339fd8" p-id="4537"></path></svg>