<?xml version="1.0" standalone="no"?><!DOCTYPE svg PUBLIC "-//W3C//DTD SVG 1.1//EN" "http://www.w3.org/Graphics/SVG/1.1/DTD/svg11.dtd"><svg t="1754708715788" class="icon" viewBox="0 0 1024 1024" version="1.1" xmlns="http://www.w3.org/2000/svg" p-id="3596" width="48" height="48" xmlns:xlink="http://www.w3.org/1999/xlink"><path d="M135.214545 775.237818l113.547637 113.524364-41.146182 41.146182-113.524364-113.524364zM719.755636 46.731636l-78.615272 78.615273 257.536 257.512727 78.592-78.615272a100.514909 100.514909 0 0 0 0-141.800728L861.556364 46.731636a100.468364 100.468364 0 0 0-141.800728 0z m216.389819 156.858182l2.56 2.792727a42.356364 42.356364 0 0 1-2.56 56.73891l-37.492364 37.445818-175.243636-175.220364 37.46909-37.469091a42.286545 42.286545 0 0 1 59.55491 0l115.712 115.712z" fill="#5AC2EE" p-id="3597"></path><path d="M607.883636 162.187636l41.099637 41.192728L195.025455 656.174545 95.232 928.977455l274.688-98.955637 450.769455-449.605818 41.076363 41.192727-455.330909 454.213818a29.090909 29.090909 0 0 1-7.749818 5.515637l-2.955636 1.256727-339.316364 122.228364c-22.341818 8.052364-43.938909-12.497455-38.027636-34.676364l0.837818-2.676364 123.368727-337.314909a29.090909 29.090909 0 0 1 4.654545-8.238545l2.117819-2.350546L607.883636 162.187636z" fill="#5AC2EE" p-id="3598"></path><path d="M707.118545 275.735273l41.146182 41.146182-431.383272 431.383272-41.146182-41.146182z" fill="#5AC2EE" p-id="3599"></path><path d="M203.357091 616.308364l204.334545 204.334545-41.146181 41.146182-204.334546-204.334546z" fill="#5AC2EE" p-id="3600"></path></svg>