<?xml version="1.0" standalone="no"?><!DOCTYPE svg PUBLIC "-//W3C//DTD SVG 1.1//EN" "http://www.w3.org/Graphics/SVG/1.1/DTD/svg11.dtd"><svg t="1763622785877" class="icon" viewBox="0 0 1024 1024" version="1.1" xmlns="http://www.w3.org/2000/svg" p-id="6680" xmlns:xlink="http://www.w3.org/1999/xlink" width="256" height="256"><path d="M528 94.4a409.6 409.6 0 1 1 0 819.2H168a41.6 41.6 0 0 1-32.768-67.2l70.08-90.24-7.936-10.304A407.744 407.744 0 0 1 119.04 527.36l-0.64-23.424A409.6 409.6 0 0 1 528 94.336z m0 83.2a326.4 326.4 0 0 0-238.848 548.864 41.6 41.6 0 0 1 2.944 53.12l-25.6 33.664L253.12 830.4H528a326.4 326.4 0 0 0 325.824-306.944l0.512-13.952 0.064-5.504A326.4 326.4 0 0 0 528 177.6z m0.768 164.8a41.6 41.6 0 0 1 40.832 42.368l-1.472 77.632H648a41.6 41.6 0 0 1 41.152 35.456L689.6 504a41.6 41.6 0 0 1-41.6 41.6h-81.408l-1.28 79.168a41.6 41.6 0 0 1-36.16 40.512l-6.208 0.32a41.6 41.6 0 0 1-40.832-42.368l1.344-77.632H408a41.6 41.6 0 0 1-41.152-35.456L366.4 504a41.6 41.6 0 0 1 41.6-41.6h76.992l1.408-79.168a41.6 41.6 0 0 1 36.16-40.512l6.208-0.32z" p-id="6681"></path></svg>