<?xml version="1.0" standalone="no"?><!DOCTYPE svg PUBLIC "-//W3C//DTD SVG 1.1//EN" "http://www.w3.org/Graphics/SVG/1.1/DTD/svg11.dtd"><svg t="1754650694698" class="icon" viewBox="0 0 1024 1024" version="1.1" xmlns="http://www.w3.org/2000/svg" p-id="3306" xmlns:xlink="http://www.w3.org/1999/xlink" width="48" height="48"><path d="M1008 921.6c0-44.8-478.4-48-478.4-48-553.6-1.6-512 64-512 64 25.6 54.4 512 36.8 512 36.8C1035.2 972.8 1008 921.6 1008 921.6z" p-id="3307" fill="#339fd8"></path><path d="M868.8 262.4 704 148.8 468.8 470.4 246.4 320 134.4 486.4 523.2 758.4Z" p-id="3308" fill="#339fd8"></path><path d="M488 833.6c16 12.8 32 17.6 44.8 17.6 20.8 0 36.8-11.2 46.4-20.8l377.6-529.6c27.2-38.4 11.2-70.4-1.6-81.6L748.8 75.2c-20.8-14.4-40-19.2-57.6-16-20.8 4.8-30.4 19.2-32 19.2L464 350.4c-9.6 9.6-25.6-1.6-27.2-3.2l-147.2-104c-19.2-14.4-38.4-19.2-54.4-16-17.6 3.2-25.6 16-28.8 19.2L67.2 454.4c-25.6 33.6-9.6 65.6 1.6 76.8L488 833.6zM92.8 473.6l140.8-208 0-1.6c0 0 3.2-3.2 8-4.8 6.4-1.6 17.6 1.6 28.8 9.6l145.6 104c14.4 11.2 48 24 70.4-1.6L684.8 97.6c0 0 4.8-4.8 11.2-6.4 9.6-1.6 20.8 1.6 33.6 11.2l203.2 144c3.2 3.2 12.8 16-3.2 38.4l-376 528c-1.6 1.6-19.2 19.2-46.4-3.2L89.6 508.8C86.4 504 78.4 491.2 92.8 473.6z" p-id="3309" fill="#339fd8"></path></svg>